{
  "accessors": [
    {
      "bufferView": 2,
      "componentType": 5126,
      "count": 65532,
      "max": [
        28.205673217773438,
        12.701239585876465,
        173.09918212890625
      ],
      "min": [
        -22.212554931640625,
        -20.80874252319336,
        0.0010450000409036875
      ],
      "type": "VEC3"
    },
    {
      "bufferView": 2,
      "byteOffset": 786384,
      "componentType": 5126,
      "count": 65532,
      "max": [
        0.9999955892562866,
        0.9999952912330627,
        0.9972484707832336
      ],
      "min": [
        -0.9999903440475464,
        -0.999993085861206,
        -1.0
      ],
      "type": "VEC3"
    },
    {
      "bufferView": 1,
      "componentType": 5126,
      "count": 65532,
      "max": [
        0.9980469942092896,
        0.7996399998664856
      ],
      "min": [
        0.08357000350952148,
        0.032248999923467636
      ],
      "type": "VEC2"
    },
    {
      "bufferView": 0,
      "componentType": 5125,
      "count": 319935,
      "type": "SCALAR"
    },
    {
      "bufferView": 2,
      "byteOffset": 1572768,
      "componentType": 5126,
      "count": 65532,
      "max": [
        27.21855926513672,
        12.703984260559082,
        173.140625
      ],
      "min": [
        -25.55124855041504,
        -20.80874252319336,
        0.000775999971665442
      ],
      "type": "VEC3"
    },
    {
      "bufferView": 2,
      "byteOffset": 2359152,
      "componentType": 5126,
      "count": 65532,
      "max": [
        0.9999905228614807,
        0.9999758005142212,
        0.9999642968177795
      ],
      "min": [
        -0.9999852776527405,
        -0.9999986290931702,
        -1.0
      ],
      "type": "VEC3"
    },
    {
      "bufferView": 1,
      "byteOffset": 524256,
      "componentType": 5126,
      "count": 65532,
      "max": [
        0.9925150275230408,
        0.730102002620697
      ],
      "min": [
        0.0019529999699443579,
        0.03021400049328804
      ],
      "type": "VEC2"
    },
    {
      "bufferView": 0,
      "byteOffset": 1279740,
      "componentType": 5125,
      "count": 324210,
      "type": "SCALAR"
    },
    {
      "bufferView": 2,
      "byteOffset": 3145536,
      "componentType": 5126,
      "count": 31418,
      "max": [
        28.36025047302246,
        12.711427688598633,
        167.73362731933594
      ],
      "min": [
        -25.424043655395508,
        -18.827640533447266,
        0.0007949999999254942
      ],
      "type": "VEC3"
    },
    {
      "bufferView": 2,
      "byteOffset": 3522552,
      "componentType": 5126,
      "count": 31418,
      "max": [
        0.9999955892562866,
        0.9999952912330627,
        0.9900174140930176
      ],
      "min": [
        -0.9999903440475464,
        -0.9999982714653015,
        -1.0
      ],
      "type": "VEC3"
    },
    {
      "bufferView": 1,
      "byteOffset": 1048512,
      "componentType": 5126,
      "count": 31418,
      "max": [
        0.9711430072784424,
        0.8034629821777344
      ],
      "min": [
        0.00995699968189001,
        0.0019529999699443579
      ],
      "type": "VEC2"
    },
    {
      "bufferView": 0,
      "byteOffset": 2576580,
      "componentType": 5125,
      "count": 134799,
      "type": "SCALAR"
    }
  ],
  "asset": {
    "extras": {
      "author": "kwong.x (https://sketchfab.com/kwong.x)",
      "license": "CC-BY-4.0 (http://creativecommons.org/licenses/by/4.0/)",
      "source": "https://sketchfab.com/3d-models/mens-a400147bb3cb4bd0b36b8ed245d0b5b5",
      "title": "MENS"
    },
    "generator": "Sketchfab-12.68.0",
    "version": "2.0"
  },
  "bufferViews": [
    {
      "buffer": 0,
      "byteLength": 3115776,
      "name": "floatBufferViews",
      "target": 34963
    },
    {
      "buffer": 0,
      "byteLength": 1299856,
      "byteOffset": 3115776,
      "byteStride": 8,
      "name": "floatBufferViews",
      "target": 34962
    },
    {
      "buffer": 0,
      "byteLength": 3899568,
      "byteOffset": 4415632,
      "byteStride": 12,
      "name": "floatBufferViews",
      "target": 34962
    }
  ],
  "buffers": [
    {
      "byteLength": 8315200,
      "uri": "scene.bin"
    }
  ],
  "extensionsUsed": [
    "KHR_materials_unlit"
  ],
  "images": [
    {
      "uri": "textures/wire_000000000_baseColor.jpeg"
    }
  ],
  "materials": [
    {
      "doubleSided": true,
      "extensions": {
        "KHR_materials_unlit": {}
      },
      "name": "wire_000000000",
      "pbrMetallicRoughness": {
        "baseColorTexture": {
          "index": 0
        },
        "metallicFactor": 0.0
      }
    }
  ],
  "meshes": [
    {
      "name": "Object_0",
      "primitives": [
        {
          "attributes": {
            "NORMAL": 1,
            "POSITION": 0,
            "TEXCOORD_0": 2
          },
          "indices": 3,
          "material": 0,
          "mode": 4
        }
      ]
    },
    {
      "name": "Object_1",
      "primitives": [
        {
          "attributes": {
            "NORMAL": 5,
            "POSITION": 4,
            "TEXCOORD_0": 6
          },
          "indices": 7,
          "material": 0,
          "mode": 4
        }
      ]
    },
    {
      "name": "Object_2",
      "primitives": [
        {
          "attributes": {
            "NORMAL": 9,
            "POSITION": 8,
            "TEXCOORD_0": 10
          },
          "indices": 11,
          "material": 0,
          "mode": 4
        }
      ]
    }
  ],
  "nodes": [
    {
      "children": [
        1
      ],
      "matrix": [
        1.0,
        0.0,
        0.0,
        0.0,
        0.0,
        2.220446049250313e-16,
        -1.0,
        0.0,
        0.0,
        1.0,
        2.220446049250313e-16,
        0.0,
        0.0,
        0.0,
        0.0,
        1.0
      ],
      "name": "Sketchfab_model"
    },
    {
      "children": [
        2,
        3,
        4
      ],
      "name": "RUST_3d_Low1.obj.cleaner.materialmerger.gles"
    },
    {
      "mesh": 0,
      "name": "Object_2"
    },
    {
      "mesh": 1,
      "name": "Object_3"
    },
    {
      "mesh": 2,
      "name": "Object_4"
    }
  ],
  "samplers": [
    {
      "magFilter": 9729,
      "minFilter": 9987,
      "wrapS": 10497,
      "wrapT": 10497
    }
  ],
  "scene": 0,
  "scenes": [
    {
      "name": "Sketchfab_Scene",
      "nodes": [
        0
      ]
    }
  ],
  "textures": [
    {
      "sampler": 0,
      "source": 0
    }
  ]
}
